<svg xmlns="http://www.w3.org/2000/svg" xmlns:xlink="http://www.w3.org/1999/xlink" width="24" height="24" viewBox="0 0 24 24">
	<defs>
		<path id="7rdbe9mbia" d="M9.293 1.647c.626.155 1.227.44 1.802.857.863.625 2.124 1.578 2.993 2.919.858 1.323 1.12 2.332 1.12 3.433 0 .475-.045 1.035-.135 1.68l.042-.041.114-.128.153-.186.161-.213c.252-.345.62-.907.772-1.345.126-.366.21-.749.25-1.148.053.016.132.062.237.139l.18.138.104.086.375.327.145.132c.827.757 1.488 1.676 1.943 2.7.467 1.048.701 2.158.701 3.302.002 1.096-.219 2.18-.65 3.188-.414.972-1.01 1.849-1.769 2.599-.752.748-1.643 1.343-2.622 1.75-1.018.425-2.096.64-3.209.64s-2.191-.215-3.209-.642c-.982-.41-1.863-1-2.622-1.75-.752-.744-1.353-1.627-1.77-2.6-.431-1.01-.649-2.08-.649-3.187 0-1.255.291-2.492.848-3.617.56-1.114 1.265-1.88 1.982-2.558l.161-.147.601-.524c.282-.247.556-.498.72-.699.474-.576.844-1.218 1.102-1.91.211-.565.3-1.244.265-2.013-.024-.513-.069-.906-.136-1.182zm2.024 3.592l-.141-.126-.041.146-.097.282c-.335.899-.817 1.734-1.43 2.482-.185.223-.4.44-.689.701l-.86.755-.105.097c-.744.703-1.199 1.265-1.564 1.993-.42.848-.64 1.782-.64 2.728 0 .837.164 1.641.488 2.4.314.735.769 1.402 1.336 1.964.58.573 1.247 1.018 1.99 1.329.772.323 1.587.487 2.436.487.848 0 1.665-.163 2.44-.487.74-.308 1.413-.757 1.986-1.327.573-.566 1.021-1.225 1.336-1.962.324-.758.49-1.574.488-2.402 0-.866-.177-1.7-.529-2.49-.085-.193-.18-.381-.286-.564l-.158-.26-.17.235-.163.21c-.204.255-.356.43-.515.577-1.38 1.274-3.598.113-3.337-1.748.079-.56.117-1.03.117-1.403 0-.787-.196-1.414-.8-2.346-.294-.454-.644-.859-1.092-1.271z"/>
	</defs>
	<g fill="none" fill-rule="evenodd">
		<g>
			<use fill="#1C1C1C" fill-rule="nonzero" xlink:href="#7rdbe9mbia"/>
		</g>
	</g>
</svg>